<svg width="17" height="17" viewBox="0 0 17 17" fill="none" xmlns="http://www.w3.org/2000/svg">
<path d="M7.00615 0.243702C6.80696 0.0345544 6.50818 -0.0451209 6.22931 0.0279148C5.95045 0.100951 5.73466 0.323378 5.66163 0.602241L5.1371 2.67712L3.07882 2.09615C2.79995 2.01648 2.50117 2.09615 2.29866 2.29866C2.09615 2.50117 2.01648 2.79995 2.09615 3.07882L2.67712 5.1371L0.602241 5.66495C0.323378 5.73466 0.10427 5.95377 0.0279148 6.23263C-0.0484407 6.5115 0.0345544 6.80696 0.243702 7.00615L1.77745 8.50006L0.243702 9.99397C0.0345544 10.1932 -0.0451209 10.4919 0.0279148 10.7708C0.100951 11.0497 0.323378 11.2655 0.602241 11.3385L2.67712 11.863L2.09615 13.9213C2.01648 14.2002 2.09615 14.4989 2.29866 14.7015C2.50117 14.904 2.79995 14.9836 3.07882 14.904L5.1371 14.323L5.66163 16.3979C5.73134 16.6767 5.95045 16.8958 6.22931 16.9722C6.50818 17.0486 6.80364 16.9656 7.00615 16.7597L8.50006 15.226L9.99397 16.7597C10.1965 16.9656 10.4919 17.0486 10.7708 16.9722C11.0497 16.8958 11.2655 16.6767 11.3385 16.3979L11.863 14.323L13.9213 14.904C14.2002 14.9836 14.4989 14.904 14.7015 14.7015C14.904 14.4989 14.9836 14.2002 14.904 13.9213L14.323 11.863L16.3979 11.3385C16.6767 11.2688 16.8958 11.0497 16.9722 10.7708C17.0486 10.4919 16.9656 10.1965 16.7597 9.99397L15.226 8.50006L16.7597 7.00615C16.9656 6.80364 17.0486 6.50818 16.9722 6.22931C16.8958 5.95045 16.6767 5.73466 16.3979 5.66163L14.323 5.1371L14.904 3.07882C14.9836 2.79995 14.904 2.50117 14.7015 2.29866C14.4989 2.09615 14.2002 2.01648 13.9213 2.09615L11.863 2.67712L11.3352 0.602241C11.2655 0.323378 11.0464 0.10427 10.7675 0.0279148C10.4886 -0.0484407 10.1932 0.0345544 9.99397 0.243702L8.50006 1.77745L7.00615 0.243702Z" fill="#D1D5DB"/>
</svg>
