<svg width="30" height="32" viewBox="0 0 30 32" fill="none" xmlns="http://www.w3.org/2000/svg">
<path d="M0 8C0 3.58172 3.58172 0 8 0H22C26.4183 0 30 3.58172 30 8V24C30 28.4183 26.4183 32 22 32H8C3.58172 32 0 28.4183 0 24V8Z" stroke="#E5E7EB"/>
<g clip-path="url(#clip0_387_3613)">
<g clip-path="url(#clip1_387_3613)">
<path d="M14.9999 8C14.4468 8 13.9999 8.44687 13.9999 9V9.6C11.7186 10.0625 9.99989 12.0813 9.99989 14.5V15.0875C9.99989 16.5562 9.45927 17.975 8.48427 19.075L8.25302 19.3344C7.99052 19.6281 7.92802 20.05 8.08739 20.4094C8.24677 20.7688 8.60614 21 8.99989 21H20.9999C21.3936 21 21.7499 20.7688 21.9124 20.4094C22.0749 20.05 22.0093 19.6281 21.7468 19.3344L21.5155 19.075C20.5405 17.975 19.9999 16.5594 19.9999 15.0875V14.5C19.9999 12.0813 18.2811 10.0625 15.9999 9.6V9C15.9999 8.44687 15.553 8 14.9999 8ZM16.4155 23.4156C16.7905 23.0406 16.9999 22.5312 16.9999 22H14.9999H12.9999C12.9999 22.5312 13.2093 23.0406 13.5843 23.4156C13.9593 23.7906 14.4686 24 14.9999 24C15.5311 24 16.0405 23.7906 16.4155 23.4156Z" fill="#D1D5DB"/>
</g>
</g>
<path d="M22 4C22 1.79086 23.7909 0 26 0C28.2091 0 30 1.79086 30 4C30 6.20914 28.2091 8 26 8C23.7909 8 22 6.20914 22 4Z" fill="#EF4444"/>
<path d="M22 4C22 1.79086 23.7909 0 26 0C28.2091 0 30 1.79086 30 4C30 6.20914 28.2091 8 26 8C23.7909 8 22 6.20914 22 4Z" stroke="#E5E7EB"/>
<defs>
<clipPath id="clip0_387_3613">
<rect width="14" height="16" fill="white" transform="translate(8 8)"/>
</clipPath>
<clipPath id="clip1_387_3613">
<path d="M8 8H22V24H8V8Z" fill="white"/>
</clipPath>
</defs>
</svg>
